<svg xmlns="http://www.w3.org/2000/svg" xmlns:xlink="http://www.w3.org/1999/xlink" width="192" zoomAndPan="magnify" viewBox="0 0 144 149.999998" height="200" preserveAspectRatio="xMidYMid meet" version="1.0"><defs><clipPath id="92b0cf7ebd"><path d="M 48.21875 31.9375 L 95.59375 31.9375 L 95.59375 79.316406 L 48.21875 79.316406 Z M 48.21875 31.9375 " clip-rule="nonzero"/></clipPath><clipPath id="7aeb30093f"><path d="M 71.90625 31.9375 C 58.824219 31.9375 48.21875 42.542969 48.21875 55.625 C 48.21875 68.707031 58.824219 79.316406 71.90625 79.316406 C 84.988281 79.316406 95.59375 68.707031 95.59375 55.625 C 95.59375 42.542969 84.988281 31.9375 71.90625 31.9375 Z M 71.90625 31.9375 " clip-rule="nonzero"/></clipPath><clipPath id="bbaa87fee8"><path d="M 34.636719 75 L 109.285156 75 L 109.285156 140.222656 L 34.636719 140.222656 Z M 34.636719 75 " clip-rule="nonzero"/></clipPath><clipPath id="be947fe488"><path d="M 71.90625 140.222656 L 109.175781 75 L 34.636719 75 Z M 71.90625 140.222656 " clip-rule="nonzero"/></clipPath></defs><path fill="#ffffff" d="M 139.253906 73.300781 C 139.222656 87.621094 134.453125 101.8125 126.007812 113.347656 C 117.960938 124.359375 106.644531 132.863281 93.824219 137.484375 C 80.519531 142.285156 65.773438 142.835938 52.160156 139.105469 C 38.972656 135.464844 27.011719 127.847656 18.109375 117.445312 C 9.117188 106.921875 3.425781 93.769531 1.988281 80 C 0.457031 65.285156 4.28125 50.144531 12.144531 37.664062 C 19.394531 26.128906 30.070312 16.890625 42.523438 11.355469 C 55.492188 5.601562 70.179688 4.011719 84.097656 6.824219 C 97.496094 9.519531 109.949219 16.308594 119.523438 26.066406 C 129.160156 35.886719 135.734375 48.523438 138.183594 62.074219 C 138.886719 65.929688 139.253906 69.84375 139.253906 73.761719 C 139.253906 74.800781 139.285156 73.792969 139.253906 73.300781 C 139.222656 59.261719 135.246094 45.554688 127.292969 33.929688 C 119.277344 22.246094 107.683594 13.128906 94.40625 8.203125 C 80.640625 3.09375 65.28125 2.542969 51.148438 6.671875 C 37.503906 10.648438 25.269531 18.910156 16.429688 30.074219 C 7.554688 41.273438 2.386719 55.101562 1.683594 69.355469 C 1.007812 83.03125 3.855469 96.613281 10.707031 108.511719 C 17.710938 120.71875 28.480469 130.660156 41.238281 136.65625 C 54.574219 142.929688 69.871094 144.703125 84.3125 141.734375 C 98.230469 138.890625 111.078125 131.640625 120.777344 121.238281 C 130.535156 110.808594 136.867188 97.378906 138.703125 83.214844 C 139.101562 80.0625 139.285156 76.910156 139.285156 73.730469 C 139.285156 73.242188 139.253906 72.230469 139.253906 73.300781 Z M 139.253906 73.300781 " fill-opacity="1" fill-rule="nonzero"/><path fill="#ffffff" d="M 89.328125 139.746094 C 75.652344 142.929688 61.214844 141.949219 48.152344 136.78125 C 35.457031 131.734375 24.382812 122.921875 16.671875 111.632812 C 8.445312 99.609375 3.886719 84.589844 4.773438 69.96875 C 5.628906 56.171875 10.769531 42.769531 19.273438 31.878906 C 36.742188 9.546875 67.117188 0.0976562 94.160156 8.632812 C 107.042969 12.699219 118.605469 20.5625 127.078125 31.085938 C 136.101562 42.25 141.425781 56.203125 142.222656 70.519531 C 143.8125 98.90625 125.394531 126.105469 99.300781 136.597656 C 96.058594 137.882812 92.722656 138.921875 89.328125 139.746094 C 89.207031 139.777344 89.421875 141.246094 89.328125 141.277344 C 103.460938 137.882812 116.28125 130.140625 125.761719 119.097656 C 135.03125 108.300781 140.785156 94.65625 142.070312 80.492188 C 143.292969 66.96875 140.875 53.203125 134.636719 41.121094 C 128.089844 28.425781 117.535156 17.992188 104.808594 11.476562 C 92.019531 4.898438 77.273438 2.511719 63.050781 4.714844 C 48.609375 6.949219 35.058594 13.800781 24.71875 24.171875 C 14.714844 34.234375 7.953125 47.359375 5.597656 61.371094 C 3.363281 74.648438 4.863281 88.660156 10.09375 101.078125 C 15.632812 114.234375 25.332031 125.460938 37.503906 132.957031 C 49.742188 140.453125 64.242188 144.03125 78.558594 142.929688 C 82.199219 142.652344 85.78125 142.074219 89.328125 141.246094 C 89.449219 141.246094 89.238281 139.777344 89.328125 139.746094 Z M 89.328125 139.746094 " fill-opacity="1" fill-rule="nonzero"/><path fill="#ffffff" d="M 104.625 133.476562 C 91.804688 140.359375 76.847656 142.960938 62.46875 140.972656 C 48.761719 139.074219 35.699219 133.109375 25.390625 123.871094 C 14.683594 114.324219 7.066406 101.417969 3.855469 87.4375 C 0.734375 73.914062 1.773438 59.535156 6.761719 46.59375 C 11.808594 33.503906 20.832031 22.0625 32.425781 14.136719 C 44.816406 5.664062 60.203125 1.777344 75.132812 2.789062 C 88.929688 3.707031 102.328125 8.753906 113.28125 17.195312 C 124.691406 26.007812 133.167969 38.367188 137.386719 52.132812 C 141.457031 65.410156 141.394531 79.789062 137.328125 93.035156 C 133.226562 106.371094 125.089844 118.363281 114.167969 127.050781 C 111.078125 129.53125 107.746094 131.761719 104.257812 133.660156 C 103.308594 134.179688 104.195312 133.722656 104.625 133.476562 C 117.136719 126.683594 127.445312 116.496094 133.992188 103.800781 C 140.570312 91.015625 143.109375 76.269531 141.089844 62.015625 C 139.007812 47.238281 132.097656 33.289062 121.601562 22.671875 C 111.476562 12.394531 98.167969 5.480469 83.976562 2.972656 C 69.71875 0.460938 54.851562 2.511719 41.789062 8.753906 C 29.277344 14.75 18.507812 23.835938 11.195312 35.675781 C 3.671875 47.851562 0 62.257812 0.824219 76.515625 C 1.683594 91.441406 7.464844 105.945312 17.070312 117.414062 C 26.339844 128.460938 39.003906 136.445312 52.953125 140.085938 C 66.964844 143.753906 82.015625 142.929688 95.539062 137.730469 C 98.535156 136.566406 101.441406 135.191406 104.289062 133.660156 C 104.683594 133.476562 105.601562 132.957031 104.625 133.476562 Z M 104.625 133.476562 " fill-opacity="1" fill-rule="nonzero"/><path fill="#ffffff" d="M 21.230469 120.964844 C 11.777344 110.289062 5.71875 96.949219 4.039062 82.785156 C 2.417969 69.019531 4.925781 54.886719 11.289062 42.558594 C 18.050781 29.402344 29.277344 18.082031 42.738281 11.84375 C 55.464844 5.9375 69.902344 4.074219 83.730469 6.398438 C 112.089844 11.199219 135.1875 33.746094 140.601562 62.015625 C 143.171875 75.472656 141.730469 89.609375 136.441406 102.242188 C 130.839844 115.671875 120.960938 127.144531 108.570312 134.792969 C 84.003906 149.902344 50.84375 146.570312 28.878906 128.367188 C 26.15625 126.074219 23.617188 123.59375 21.230469 120.964844 C 21.140625 120.871094 19.945312 121.789062 19.855469 121.699219 C 29.703125 132.679688 42.796875 140.390625 57.238281 143.511719 C 71.339844 146.570312 86.300781 145.132812 99.578125 139.441406 C 112.210938 133.996094 123.347656 125.214844 131.117188 113.835938 C 139.285156 101.875 143.539062 87.40625 143.199219 72.933594 C 142.863281 58.34375 137.910156 44.027344 129.066406 32.402344 C 120.105469 20.59375 107.46875 11.78125 93.214844 7.558594 C 79.445312 3.460938 64.425781 3.734375 50.8125 8.386719 C 37.871094 12.820312 26.0625 20.898438 17.5 31.574219 C 8.445312 42.863281 3.089844 56.933594 2.292969 71.40625 C 1.5 85.96875 5.324219 100.589844 13.183594 112.859375 C 15.171875 115.976562 17.4375 118.914062 19.882812 121.667969 C 19.976562 121.789062 21.167969 120.871094 21.230469 120.964844 Z M 21.230469 120.964844 " fill-opacity="1" fill-rule="nonzero"/><g clip-path="url(#92b0cf7ebd)"><g clip-path="url(#7aeb30093f)"><path fill="#b4b4b4" d="M 48.21875 31.9375 L 95.59375 31.9375 L 95.59375 79.316406 L 48.21875 79.316406 Z M 48.21875 31.9375 " fill-opacity="1" fill-rule="nonzero"/></g></g><g clip-path="url(#bbaa87fee8)"><g clip-path="url(#be947fe488)"><path fill="#b4b4b4" d="M 34.636719 75 L 109.285156 75 L 109.285156 140.222656 L 34.636719 140.222656 Z M 34.636719 75 " fill-opacity="1" fill-rule="nonzero"/></g></g></svg>